<svg width="838" height="600" viewBox="0 0 838 600" fill="none" xmlns="http://www.w3.org/2000/svg">
<path d="M287.826 157.388C312.06 98.0251 352.79 41.0251 405.222 3.82505C407.46 2.23662 410.119 1.36051 412.847 1.31255C475.458 -0.11245 532.482 15.6376 583.92 48.5626C645.625 88.0626 687.978 144.688 710.979 218.438C711.002 218.52 711.005 218.606 710.99 218.69C710.974 218.774 710.94 218.853 710.889 218.922C710.838 218.99 710.772 219.046 710.696 219.086C710.62 219.126 710.536 219.147 710.45 219.15H691.388C691.199 219.148 691.016 219.089 690.861 218.982C690.706 218.875 690.587 218.725 690.519 218.55L676.855 184.538C676.589 183.872 676.13 183.301 675.538 182.9C674.945 182.498 674.247 182.285 673.533 182.288H579.73C579.498 182.288 579.269 182.339 579.059 182.439C578.85 182.539 578.666 182.685 578.521 182.865C578.376 183.045 578.274 183.255 578.222 183.479C578.17 183.704 578.169 183.938 578.22 184.163L585.165 216.75C585.222 217.023 585.217 217.305 585.152 217.576C585.087 217.846 584.963 218.099 584.79 218.314C584.616 218.53 584.397 218.703 584.149 218.822C583.9 218.94 583.629 219.001 583.354 219H567.16C566.57 218.997 565.998 218.795 565.539 218.427C565.079 218.059 564.759 217.547 564.631 216.975L557.798 184.725C557.574 183.685 556.994 182.753 556.156 182.084C555.318 181.415 554.272 181.05 553.193 181.05H442.252C441.712 181.05 441.193 180.837 440.811 180.457C440.429 180.077 440.214 179.562 440.214 179.025V161.963C440.214 161.555 440.377 161.164 440.667 160.875C440.958 160.587 441.351 160.425 441.762 160.425H549.192C549.371 160.427 549.548 160.387 549.708 160.309C549.869 160.23 550.008 160.114 550.115 159.971C550.222 159.829 550.293 159.663 550.323 159.488C550.353 159.312 550.34 159.132 550.287 158.963C533.828 109.113 507.858 65.2501 472.375 27.3751C471.888 26.8171 471.207 26.4453 470.45 26.3251L445.046 21.3376C444.361 21.2043 443.654 21.2226 442.978 21.391C442.301 21.5594 441.671 21.8738 441.133 22.3114C440.595 22.7491 440.162 23.2991 439.866 23.9218C439.57 24.5445 439.418 25.2245 439.421 25.9126V155.85C439.421 156.586 439.127 157.292 438.603 157.812C438.079 158.333 437.369 158.625 436.628 158.625H288.657C288.509 158.624 288.364 158.586 288.235 158.516C288.105 158.447 287.994 158.346 287.912 158.224C287.831 158.102 287.78 157.962 287.765 157.817C287.75 157.671 287.771 157.523 287.826 157.388ZM664.926 160.613C629.746 101.363 579.264 59.9626 513.482 36.4126C512.4 36.0126 511.331 35.9126 510.274 36.1126C509.95 36.1701 509.648 36.3103 509.395 36.5197C509.143 36.7291 508.949 37.0009 508.832 37.3091C508.714 37.6172 508.678 37.9516 508.725 38.2804C508.773 38.6092 508.903 38.9215 509.104 39.1876C536.836 75.6126 557.245 115.438 570.331 158.663C570.562 159.415 571.023 160.075 571.647 160.547C572.272 161.018 573.027 161.278 573.803 161.288L663.719 162.713C663.966 162.714 664.21 162.65 664.425 162.528C664.64 162.405 664.818 162.227 664.941 162.013C665.064 161.8 665.127 161.557 665.125 161.311C665.122 161.065 665.054 160.824 664.926 160.613Z" fill="#0070B8"/>
<path d="M360.189 10.0875C316.125 50.8875 283.561 99.5875 262.498 156.188C262.289 156.758 261.909 157.25 261.41 157.599C260.91 157.948 260.315 158.136 259.705 158.138H197.421C197.02 158.138 196.636 158.292 196.353 158.566C196.07 158.84 195.911 159.212 195.911 159.6V180.038C195.911 180.425 196.066 180.797 196.342 181.072C196.618 181.346 196.993 181.5 197.383 181.5H251.74C251.952 181.499 252.162 181.547 252.354 181.639C252.545 181.732 252.713 181.866 252.844 182.032C252.975 182.199 253.066 182.393 253.11 182.599C253.154 182.806 253.15 183.02 253.099 183.225L244.492 216.6C244.3 217.332 243.865 217.979 243.257 218.441C242.649 218.902 241.902 219.152 241.133 219.15H135.477C135.269 219.153 135.065 219.107 134.878 219.016C134.692 218.926 134.53 218.793 134.405 218.629C134.28 218.465 134.196 218.273 134.159 218.071C134.122 217.868 134.134 217.66 134.193 217.463C166.128 110.175 249.928 33.2625 358.792 7.5C359.124 7.42941 359.473 7.46803 359.783 7.60986C360.093 7.75168 360.348 7.98874 360.507 8.28408C360.666 8.57942 360.722 8.91646 360.664 9.24267C360.607 9.56887 360.44 9.86591 360.189 10.0875Z" fill="#0070B8"/>
<path d="M437.61 184.012V216.975C437.61 217.261 437.553 217.543 437.443 217.807C437.333 218.071 437.172 218.311 436.969 218.513C436.765 218.715 436.524 218.875 436.258 218.984C435.993 219.094 435.708 219.15 435.42 219.15H271.444C271.113 219.148 270.786 219.072 270.488 218.926C270.191 218.781 269.93 218.57 269.727 218.31C269.523 218.05 269.382 217.748 269.313 217.425C269.244 217.103 269.25 216.77 269.33 216.45L277.824 183.487C277.941 183.018 278.213 182.601 278.596 182.302C278.978 182.003 279.451 181.84 279.938 181.837H435.42C435.708 181.837 435.993 181.894 436.258 182.003C436.524 182.112 436.765 182.272 436.969 182.474C437.172 182.676 437.333 182.916 437.443 183.18C437.553 183.444 437.61 183.727 437.61 184.012Z" fill="#0070B8"/>
<path d="M213.464 328.125L221.995 329.775C222.909 329.957 223.733 330.445 224.324 331.155C224.916 331.866 225.24 332.757 225.241 333.675V345.075C225.241 345.574 225.141 346.067 224.945 346.526C224.749 346.985 224.462 347.398 224.102 347.742C223.742 348.086 223.316 348.353 222.849 348.526C222.383 348.699 221.887 348.775 221.391 348.75C214.772 348.45 209.173 347.612 204.593 346.237C201.649 345.337 199.233 342.3 196.817 341.775C195.835 341.556 194.817 341.648 193.91 342.037C168.292 353.037 146.499 349.725 128.531 332.1C101.126 305.25 115.282 257.812 152.878 247.462C198.365 235.012 238 283.237 211.878 324.487C211.668 324.818 211.543 325.194 211.513 325.583C211.482 325.973 211.548 326.364 211.704 326.722C211.86 327.08 212.102 327.396 212.409 327.64C212.716 327.885 213.078 328.051 213.464 328.125ZM167.864 293.7C176.974 297.1 184.385 303.2 190.098 312C190.231 312.213 190.419 312.385 190.643 312.5C190.867 312.615 191.118 312.668 191.37 312.652C191.621 312.637 191.864 312.554 192.072 312.413C192.28 312.272 192.446 312.077 192.551 311.85C195.747 305.1 196.892 297.362 195.986 288.637C195.857 287.397 195.512 286.191 194.967 285.075C190.664 276.275 184.901 270.525 177.679 267.825C170.431 265.125 162.278 265.662 153.218 269.437C152.066 269.924 151.006 270.609 150.085 271.462C143.618 277.437 139.34 284.012 137.251 291.187C137.179 291.427 137.174 291.681 137.236 291.923C137.298 292.166 137.424 292.387 137.602 292.563C137.78 292.74 138.003 292.866 138.246 292.927C138.49 292.989 138.746 292.984 138.987 292.912C149.129 290.037 158.755 290.3 167.864 293.7ZM142.12 310.111C141.239 312.192 142.224 314.952 144.858 317.784C147.492 320.615 151.558 323.287 156.164 325.21C158.444 326.162 160.788 326.902 163.061 327.387C165.335 327.873 167.494 328.094 169.415 328.039C171.336 327.983 172.981 327.653 174.256 327.065C175.532 326.477 176.413 325.644 176.849 324.614C177.729 322.533 176.744 319.773 174.111 316.941C171.477 314.11 167.41 311.438 162.805 309.515C160.525 308.563 158.181 307.823 155.907 307.338C153.634 306.852 151.475 306.631 149.554 306.686C147.633 306.741 145.988 307.072 144.713 307.66C143.437 308.248 142.556 309.081 142.12 310.111Z" fill="#18161A"/>
<path d="M726.26 296.169C726.368 302.95 725.097 309.685 722.522 315.991C719.947 322.297 716.117 328.05 711.251 332.922C706.385 337.793 700.578 341.688 694.162 344.383C687.747 347.079 680.848 348.522 673.859 348.631C666.87 348.74 659.929 347.513 653.431 345.019C646.934 342.525 641.007 338.813 635.989 334.096C630.972 329.379 626.962 323.748 624.188 317.526C621.415 311.303 619.932 304.611 619.825 297.831C619.717 291.05 620.988 284.315 623.563 278.009C626.139 271.703 629.968 265.95 634.834 261.079C639.7 256.207 645.507 252.312 651.923 249.617C658.338 246.922 665.237 245.478 672.226 245.369C679.215 245.26 686.156 246.487 692.654 248.981C699.151 251.475 705.078 255.187 710.096 259.904C715.113 264.621 719.123 270.252 721.897 276.474C724.671 282.697 726.153 289.389 726.26 296.169ZM671.778 266.165C667.929 266.325 664.152 267.282 660.662 268.982C657.173 270.681 654.038 273.09 651.438 276.07C648.838 279.05 646.823 282.543 645.508 286.35C644.193 290.157 643.605 294.204 643.776 298.258C643.947 302.312 644.874 306.295 646.505 309.98C648.136 313.664 650.438 316.977 653.28 319.731C656.122 322.485 659.449 324.624 663.069 326.028C666.69 327.431 670.535 328.071 674.383 327.911C678.231 327.75 682.008 326.793 685.498 325.094C688.988 323.394 692.123 320.985 694.723 318.005C697.323 315.025 699.338 311.532 700.652 307.725C701.967 303.918 702.556 299.872 702.385 295.817C702.214 291.763 701.286 287.78 699.655 284.096C698.025 280.411 695.723 277.098 692.88 274.344C690.038 271.591 686.712 269.451 683.091 268.048C679.47 266.644 675.626 266.004 671.778 266.165Z" fill="#18161A"/>
<path d="M285.222 327.675C295.225 327.675 298.207 322.05 299.453 312.788C299.478 312.588 299.491 291.338 299.491 249.038C299.491 248.58 299.674 248.141 299.999 247.818C300.325 247.494 300.767 247.313 301.227 247.312H321.46C321.921 247.313 322.362 247.494 322.688 247.818C323.014 248.141 323.196 248.58 323.196 249.038C323.398 278.488 323.36 299.75 323.083 312.825C322.63 335.062 307.72 348.112 285.222 348.15C262.762 348.15 247.814 335.138 247.323 312.9C247.021 299.825 246.946 278.563 247.097 249.113C247.097 248.655 247.28 248.216 247.606 247.893C247.931 247.569 248.373 247.388 248.833 247.388L269.066 247.35C269.294 247.35 269.52 247.395 269.731 247.481C269.941 247.568 270.133 247.695 270.294 247.855C270.455 248.015 270.583 248.206 270.67 248.415C270.758 248.624 270.803 248.848 270.803 249.075C270.878 291.375 270.928 312.625 270.954 312.825C272.199 322.087 275.181 327.712 285.222 327.675Z" fill="#18161A"/>
<path d="M838 342.675V345.713L818.333 346.125C817.735 346.136 817.145 345.993 816.622 345.711C816.099 345.428 815.661 345.015 815.351 344.513L779.491 288.075C779.288 287.748 778.982 287.495 778.621 287.357C778.26 287.218 777.863 287.2 777.491 287.307C777.119 287.413 776.792 287.637 776.56 287.945C776.328 288.253 776.204 288.628 776.207 289.013V345.675C776.207 345.844 776.139 346.006 776.019 346.126C775.899 346.245 775.735 346.313 775.565 346.313H754.426C754.186 346.313 753.956 346.222 753.786 346.06C753.616 345.898 753.521 345.679 753.521 345.45V248.7C753.521 248.342 753.664 247.999 753.919 247.746C754.173 247.492 754.519 247.35 754.879 247.35H772.545C773.067 247.35 773.578 247.477 774.033 247.72C774.488 247.962 774.872 248.312 775.15 248.738C784.134 262.738 795.408 281 808.972 303.525C810.734 306.425 812.457 308.563 814.143 309.938C814.237 310.016 814.351 310.067 814.473 310.083C814.594 310.1 814.718 310.081 814.829 310.03C814.94 309.978 815.034 309.897 815.1 309.794C815.166 309.691 815.201 309.572 815.2 309.45V248.325C815.2 248.067 815.3 247.819 815.477 247.636C815.654 247.453 815.894 247.35 816.144 247.35H836.452C836.726 247.35 836.989 247.46 837.187 247.656C837.384 247.852 837.499 248.118 837.509 248.4L838 342.675Z" fill="#18161A"/>
<path d="M50.9219 332.1C42.6174 332.075 37.383 332.112 35.2188 332.212C34.4765 332.246 33.7607 332.491 33.1579 332.917C32.555 333.343 32.0909 333.932 31.8215 334.612L27.9335 344.287C27.7075 344.85 27.3172 345.333 26.8127 345.674C26.3081 346.015 25.7125 346.198 25.1024 346.2L3.96367 346.462C3.69927 346.469 3.43784 346.41 3.20208 346.29C2.96633 346.17 2.76338 345.994 2.61087 345.776C2.45835 345.558 2.36088 345.305 2.32693 345.039C2.29297 344.773 2.32355 344.502 2.41601 344.25L40.6922 249.712C40.9238 249.137 41.3176 248.639 41.8265 248.28C42.3353 247.921 42.9375 247.715 43.5611 247.687C45.8762 247.612 48.3802 247.587 51.0729 247.612C53.7655 247.612 56.2695 247.65 58.5847 247.725C59.2082 247.753 59.8104 247.959 60.3193 248.318C60.8281 248.677 61.2219 249.174 61.4535 249.75L99.39 344.437C99.4824 344.69 99.5129 344.96 99.4789 345.226C99.4449 345.492 99.3474 345.745 99.1949 345.963C99.0424 346.181 98.8395 346.358 98.6038 346.477C98.3681 346.597 98.1067 346.656 97.8423 346.65L76.6658 346.275C76.0622 346.266 75.4748 346.079 74.9777 345.739C74.4806 345.398 74.096 344.92 73.8725 344.362L69.9845 334.687C69.7177 334.012 69.2593 333.427 68.6638 333.002C68.0682 332.576 67.3606 332.328 66.6249 332.287C64.4607 332.187 59.2264 332.125 50.9219 332.1ZM39.7485 310.95C39.6606 311.252 39.6447 311.57 39.702 311.879C39.7594 312.188 39.8884 312.48 40.0788 312.731C40.2693 312.982 40.516 313.186 40.7993 313.326C41.0827 313.466 41.395 313.538 41.7114 313.537H60.5853C60.9017 313.538 61.214 313.466 61.4974 313.326C61.7807 313.186 62.0274 312.982 62.2179 312.731C62.4083 312.48 62.5373 312.188 62.5947 311.879C62.652 311.57 62.6361 311.252 62.5482 310.95L53.1112 279.9C52.9913 279.474 52.7345 279.1 52.3801 278.832C52.0257 278.565 51.5932 278.421 51.1484 278.421C50.7035 278.421 50.2709 278.565 49.9166 278.832C49.5622 279.1 49.3054 279.474 49.1855 279.9L39.7485 310.95Z" fill="#18161A"/>
<path d="M390.236 247.65C392.929 247.65 395.433 247.7 397.748 247.8C398.367 247.825 398.967 248.025 399.475 248.377C399.983 248.729 400.38 249.219 400.617 249.787L438.591 344.325C438.691 344.573 438.728 344.842 438.698 345.107C438.667 345.372 438.571 345.626 438.418 345.846C438.264 346.065 438.058 346.243 437.819 346.364C437.579 346.485 437.312 346.544 437.044 346.537L415.905 346.2C415.301 346.191 414.714 346.004 414.217 345.664C413.72 345.323 413.335 344.845 413.112 344.287L409.224 334.612C408.957 333.937 408.498 333.352 407.903 332.927C407.307 332.501 406.6 332.253 405.864 332.212C403.7 332.112 398.465 332.062 390.161 332.062C381.882 332.062 376.66 332.112 374.496 332.212C373.758 332.243 373.045 332.482 372.443 332.901C371.84 333.32 371.374 333.901 371.098 334.575L367.21 344.25C366.987 344.807 366.602 345.286 366.105 345.626C365.608 345.967 365.021 346.153 364.417 346.162L343.278 346.462C343.009 346.469 342.743 346.41 342.503 346.289C342.263 346.168 342.057 345.99 341.904 345.771C341.751 345.551 341.654 345.297 341.624 345.032C341.594 344.767 341.63 344.498 341.731 344.25L379.856 249.787C380.093 249.219 380.489 248.729 380.998 248.377C381.506 248.025 382.105 247.825 382.725 247.8C385.04 247.7 387.544 247.65 390.236 247.65ZM387.632 280.05L379.478 311.625C379.421 311.852 379.416 312.09 379.465 312.319C379.514 312.549 379.616 312.764 379.761 312.949C379.907 313.133 380.093 313.282 380.306 313.384C380.519 313.486 380.752 313.539 380.988 313.537H399.938C400.253 313.539 400.566 313.467 400.848 313.328C401.131 313.189 401.376 312.987 401.564 312.738C401.752 312.489 401.877 312.201 401.929 311.896C401.981 311.592 401.958 311.281 401.863 310.987L392.199 279.937C392.044 279.449 391.733 279.024 391.313 278.727C390.894 278.429 390.388 278.276 389.873 278.288C389.358 278.301 388.861 278.48 388.456 278.797C388.052 279.115 387.763 279.555 387.632 280.05Z" fill="#18161A"/>
<path d="M456.559 346.388C456.407 346.385 456.257 346.349 456.121 346.284C455.985 346.219 455.865 346.125 455.771 346.01C455.677 345.895 455.611 345.761 455.577 345.619C455.544 345.477 455.544 345.329 455.578 345.188L474.678 248.625C474.74 248.27 474.929 247.947 475.212 247.714C475.495 247.481 475.854 247.352 476.226 247.35C495.741 247.05 513.974 244.65 529.337 253.688C530.482 254.355 531.472 255.249 532.243 256.313C542.687 271.038 539.353 283.538 522.24 293.813C521.896 294.015 521.611 294.303 521.413 294.648C521.214 294.993 521.11 295.384 521.11 295.781C521.11 296.179 521.214 296.569 521.413 296.915C521.611 297.26 521.896 297.548 522.24 297.75C533.867 304.675 536.735 314.188 530.847 326.288C526.166 335.863 517.371 342.525 504.461 346.275C504.16 346.35 503.856 346.388 503.555 346.388H456.559ZM493.25 270.638L490.608 284.1C490.471 284.775 490.604 285.477 490.977 286.057C491.35 286.637 491.934 287.051 492.608 287.213C499.629 288.9 513.407 287.1 514.993 277.575C515.292 275.81 515.04 274.029 514.286 272.58C513.532 271.131 512.331 270.117 510.916 269.738C505.984 268.413 500.913 267.988 495.704 268.463C495.114 268.515 494.556 268.755 494.115 269.147C493.673 269.538 493.369 270.061 493.25 270.638ZM484.342 306L484.606 324.825C484.606 325.044 484.693 325.254 484.849 325.408C485.005 325.563 485.216 325.65 485.436 325.65L497.327 325.463C500.937 325.409 504.384 324.391 506.91 322.634C509.437 320.876 510.837 318.522 510.803 316.088V313.988C510.786 312.78 510.417 311.588 509.715 310.482C509.013 309.376 507.994 308.376 506.714 307.54C505.434 306.704 503.92 306.048 502.257 305.61C500.594 305.172 498.816 304.961 497.025 304.988L485.134 305.175C484.921 305.185 484.719 305.276 484.571 305.43C484.424 305.583 484.341 305.788 484.342 306Z" fill="#0070B8"/>
<path d="M591.507 247.425H569.462C568.858 247.425 568.368 247.912 568.368 248.513V345.263C568.368 345.863 568.858 346.35 569.462 346.35H591.507C592.112 346.35 592.602 345.863 592.602 345.263V248.513C592.602 247.912 592.112 247.425 591.507 247.425Z" fill="#18161A"/>
<path d="M347.921 588.262C347.975 588.316 348.01 588.385 348.019 588.46C348.029 588.535 348.013 588.612 347.974 588.676C347.934 588.741 347.874 588.791 347.803 588.818C347.732 588.845 347.654 588.848 347.581 588.825C305.731 577.95 267.933 558.8 234.187 531.375C182.825 489.675 148.701 436.875 131.815 372.975C131.745 372.725 131.735 372.463 131.783 372.209C131.832 371.955 131.939 371.715 132.096 371.509C132.253 371.302 132.456 371.134 132.688 371.018C132.921 370.901 133.178 370.84 133.438 370.837H234.338C234.994 370.835 235.631 371.061 236.14 371.479C236.65 371.896 237 372.478 237.131 373.125L246.342 416.325C246.386 416.552 246.379 416.786 246.322 417.011C246.265 417.235 246.159 417.445 246.011 417.624C245.863 417.803 245.678 417.947 245.467 418.047C245.257 418.146 245.027 418.199 244.794 418.2H186.36C186.121 418.198 185.883 418.247 185.664 418.345C185.444 418.443 185.248 418.587 185.087 418.768C184.927 418.948 184.806 419.162 184.732 419.393C184.659 419.625 184.635 419.87 184.662 420.112C185.543 426.887 185.379 433.325 184.171 439.425C184.121 439.685 184.129 439.952 184.195 440.209C184.261 440.465 184.383 440.703 184.553 440.908C184.722 441.112 184.935 441.276 185.176 441.389C185.416 441.502 185.679 441.562 185.945 441.562H250.154C251.158 441.562 252.138 441.872 252.957 442.45C253.775 443.028 254.392 443.845 254.722 444.787C274.552 501.137 305.618 548.962 347.921 588.262Z" fill="#0070B8"/>
<path d="M435.571 372.675V419.025C435.571 419.269 435.522 419.511 435.427 419.737C435.331 419.962 435.192 420.167 435.016 420.338C434.84 420.509 434.632 420.643 434.403 420.733C434.174 420.824 433.93 420.867 433.684 420.862L272.69 418.387C272.271 418.379 271.867 418.23 271.545 417.964C271.223 417.699 271.001 417.332 270.915 416.925L261.592 373.05C261.536 372.786 261.54 372.512 261.603 372.249C261.666 371.987 261.786 371.741 261.956 371.53C262.125 371.318 262.339 371.147 262.583 371.027C262.827 370.908 263.094 370.843 263.366 370.837H433.721C434.212 370.837 434.682 371.031 435.029 371.376C435.376 371.72 435.571 372.188 435.571 372.675Z" fill="#0070B8"/>
<path d="M712.98 371.738C704.826 402.963 693.489 430.15 678.969 453.3C626.424 537.1 549.242 585.15 447.424 597.45C442.366 598.05 425.87 597.875 397.937 596.925C396.73 596.876 395.562 596.472 394.577 595.763C341.731 556.563 303.618 506.063 280.239 444.263C280.154 444.04 280.125 443.801 280.156 443.564C280.188 443.328 280.278 443.102 280.419 442.906C280.561 442.71 280.749 442.551 280.967 442.441C281.186 442.331 281.428 442.274 281.674 442.275L432.25 444.6C432.612 444.605 432.969 444.681 433.301 444.823C433.634 444.965 433.935 445.171 434.187 445.428C434.44 445.686 434.638 445.991 434.772 446.325C434.906 446.659 434.972 447.016 434.967 447.375L432.929 575.85C432.922 576.131 432.976 576.41 433.086 576.668C433.195 576.927 433.359 577.16 433.566 577.351C433.773 577.542 434.018 577.688 434.286 577.778C434.553 577.869 434.837 577.902 435.118 577.875L457.956 575.588C461.919 575.201 465.599 573.387 468.299 570.488C500.938 535.938 525.965 494.475 543.379 446.1C543.512 445.738 543.556 445.349 543.506 444.966C543.456 444.583 543.314 444.218 543.092 443.902C542.869 443.585 542.574 443.327 542.229 443.148C541.885 442.969 541.503 442.876 541.114 442.875C537.893 442.875 534.559 442.55 531.111 441.9C530.985 441.9 530.859 441.9 530.734 441.9L439.799 441.525C439.35 441.525 438.905 441.436 438.49 441.262C438.076 441.088 437.699 440.833 437.383 440.512C437.067 440.192 436.818 439.811 436.65 439.393C436.481 438.974 436.397 438.526 436.402 438.075L436.628 423.825C436.648 423.056 436.972 422.325 437.53 421.792C438.089 421.258 438.836 420.965 439.61 420.975L550.06 422.7C550.694 422.712 551.311 422.504 551.801 422.113C552.292 421.722 552.625 421.172 552.74 420.563L562.026 373.65C562.195 372.808 562.656 372.053 563.326 371.517C563.996 370.982 564.833 370.701 565.688 370.725L581.051 370.95C581.323 370.956 581.59 371.021 581.834 371.139C582.077 371.258 582.292 371.427 582.461 371.634C582.63 371.842 582.751 372.083 582.814 372.341C582.877 372.598 582.881 372.866 582.825 373.125L573.351 421.013C573.323 421.162 573.329 421.316 573.367 421.463C573.406 421.61 573.476 421.747 573.573 421.865C573.669 421.983 573.791 422.078 573.929 422.145C574.066 422.211 574.217 422.247 574.37 422.25L668.89 423.713C670.247 423.736 671.579 423.341 672.701 422.582C673.823 421.824 674.681 420.738 675.156 419.475L692.898 371.85C693.033 371.487 693.277 371.176 693.595 370.961C693.914 370.745 694.291 370.636 694.672 370.65L712.338 370.913C712.438 370.916 712.537 370.941 712.626 370.986C712.715 371.031 712.794 371.096 712.855 371.175C712.916 371.253 712.959 371.345 712.981 371.442C713.002 371.54 713.002 371.64 712.98 371.738ZM659.718 446.175C659.851 445.968 659.928 445.73 659.938 445.485C659.949 445.239 659.894 444.996 659.779 444.778C659.664 444.561 659.492 444.378 659.283 444.248C659.073 444.117 658.832 444.045 658.585 444.038L568.896 442.838C568.128 442.832 567.375 443.072 566.745 443.523C566.115 443.974 565.639 444.613 565.386 445.35C551.042 488.025 529.513 527.113 500.8 562.613C500.599 562.871 500.466 563.175 500.411 563.496C500.357 563.818 500.384 564.147 500.489 564.453C500.594 564.759 500.774 565.032 501.013 565.248C501.252 565.464 501.542 565.615 501.856 565.688C502.913 565.938 503.983 565.875 505.065 565.5C571.325 543.975 622.876 504.2 659.718 446.175Z" fill="#0070B8"/>
</svg>
